# xmcd
#
# Track frame offsets: 
#        150
#        12743
#        25036
#        26535
#        35204
#        49691
#        65093
#        66928
#        74064
#        75077
#        84881
#        91170
#        110221
#        129748
#        145250
#        147104
#        156528
#        157759
#        172578
#        173404
#        189587
#        191590
#        218887
#        221336
#        239394
#        251150
#
# Disc length: 3472 seconds
#
# Revision: 1
# Processed by: cddbd v1.5.2PL0 Copyright (c) Steve Scherf et al.
# Submitted via: ExactAudioCopy v1.0b3
#
DISCID=6e0d8e1a
DTITLE=Cathryn Craig - Pigg River Symphony
DYEAR=2002
DGENRE=Traditional
TTITLE0=Letter Fron Uncle Wilt
TTITLE1=Carry me Back to Old Virginny
TTITLE2=Pop's Fiddle
TTITLE3=She'll be Comin' Round the Mountain
TTITLE4=Red River Valley
TTITLE5=Clementine
TTITLE6=Uncle Lou Webb
TTITLE7=There is a Tavern in the Town
TTITLE8=Cornbread and Beans (Prelude
TTITLE9=Cornbread and Beans
TTITLE10=America
TTITLE11=Will the Circle be Unbroken
TTITLE12=My Bonnie Lies Over the Ocean
TTITLE13=My Father's House
TTITLE14=The Webbs
TTITLE15=Little Brown Jug
TTITLE16=Dancing
TTITLE17=Study War no More
TTITLE18=The Pump Organ
TTITLE19=Amazing Grace
TTITLE20=Frankie and Johnny (Prelude)
TTITLE21=Frankie and Johnny
TTITLE22=Sister Susan
TTITLE23=Down in the Valley
TTITLE24=Dixie
TTITLE25=Dixie (Reprise)
EXTD=
EXTT0=
EXTT1=
EXTT2=
EXTT3=
EXTT4=
EXTT5=
EXTT6=
EXTT7=
EXTT8=
EXTT9=
EXTT10=
EXTT11=
EXTT12=
EXTT13=
EXTT14=
EXTT15=
EXTT16=
EXTT17=
EXTT18=
EXTT19=
EXTT20=
EXTT21=
EXTT22=
EXTT23=
EXTT24=
EXTT25=
PLAYORDER=
